<svg width="134" height="34" viewBox="0 0 134 34" fill="none" xmlns="http://www.w3.org/2000/svg">
<rect x="35" y="5" width="39" height="26" rx="2" fill="#FFDE33"/>
<path d="M51.616 11.688C52.976 11.688 54.072 12.128 54.904 13.008C55.736 13.888 56.152 15.072 56.152 16.56V24H53.56V16.728C53.56 15.912 53.352 15.272 52.936 14.808C52.52 14.344 51.952 14.112 51.232 14.112C50.416 14.112 49.776 14.384 49.312 14.928C48.848 15.456 48.616 16.24 48.616 17.28V24H46.024V16.728C46.024 15.896 45.824 15.256 45.424 14.808C45.04 14.344 44.488 14.112 43.768 14.112C42.968 14.112 42.32 14.384 41.824 14.928C41.344 15.472 41.104 16.256 41.104 17.28V24H38.512V12H41.104V13.44C41.872 12.272 43.016 11.688 44.536 11.688C46.072 11.688 47.208 12.32 47.944 13.584C48.728 12.32 49.952 11.688 51.616 11.688ZM70.5181 19.104H60.9661C61.1581 20 61.5901 20.696 62.2621 21.192C62.9501 21.688 63.7981 21.936 64.8061 21.936C66.1661 21.936 67.1981 21.44 67.9021 20.448L70.0381 21.696C68.8701 23.44 67.1181 24.312 64.7821 24.312C62.8461 24.312 61.2701 23.72 60.0541 22.536C58.8541 21.336 58.2541 19.824 58.2541 18C58.2541 16.224 58.8461 14.728 60.0301 13.512C61.1981 12.296 62.7181 11.688 64.5901 11.688C66.3341 11.688 67.7741 12.304 68.9101 13.536C70.0461 14.768 70.6141 16.264 70.6141 18.024C70.6141 18.344 70.5821 18.704 70.5181 19.104ZM60.9421 16.992H67.9981C67.8221 16.048 67.4221 15.32 66.7981 14.808C66.1901 14.296 65.4461 14.04 64.5661 14.04C63.6061 14.04 62.8061 14.304 62.1661 14.832C61.5261 15.36 61.1181 16.08 60.9421 16.992Z" fill="#121116"/>
<path d="M81.824 11.688C83.216 11.688 84.328 12.136 85.16 13.032C86.008 13.912 86.432 15.112 86.432 16.632V24H83.84V16.896C83.84 16 83.6 15.312 83.12 14.832C82.64 14.352 81.984 14.112 81.152 14.112C80.208 14.112 79.464 14.408 78.92 15C78.376 15.576 78.104 16.432 78.104 17.568V24H75.512V12H78.104V13.536C78.904 12.304 80.144 11.688 81.824 11.688ZM98.7269 13.704V12H101.319V24H98.7269V22.272C97.7509 23.632 96.3509 24.312 94.5269 24.312C92.8789 24.312 91.4709 23.704 90.3029 22.488C89.1349 21.272 88.5509 19.776 88.5509 18C88.5509 16.224 89.1349 14.728 90.3029 13.512C91.4709 12.296 92.8789 11.688 94.5269 11.688C96.3509 11.688 97.7509 12.36 98.7269 13.704ZM92.2229 20.76C92.9429 21.48 93.8469 21.84 94.9349 21.84C96.0229 21.84 96.9269 21.48 97.6469 20.76C98.3669 20.024 98.7269 19.104 98.7269 18C98.7269 16.896 98.3669 15.984 97.6469 15.264C96.9269 14.528 96.0229 14.16 94.9349 14.16C93.8469 14.16 92.9429 14.528 92.2229 15.264C91.5029 15.984 91.1429 16.896 91.1429 18C91.1429 19.088 91.5029 20.008 92.2229 20.76ZM111.036 12V14.496H108.06V20.256C108.06 20.752 108.172 21.112 108.396 21.336C108.62 21.544 108.948 21.664 109.38 21.696C109.828 21.712 110.38 21.704 111.036 21.672V24C109.052 24.24 107.628 24.072 106.764 23.496C105.9 22.904 105.468 21.824 105.468 20.256V14.496H103.26V12H105.468V9.408L108.06 8.64V12H111.036ZM123.047 22.488C121.831 23.704 120.335 24.312 118.559 24.312C116.783 24.312 115.287 23.704 114.071 22.488C112.839 21.256 112.223 19.76 112.223 18C112.223 16.24 112.839 14.744 114.071 13.512C115.287 12.296 116.783 11.688 118.559 11.688C120.335 11.688 121.831 12.296 123.047 13.512C124.279 14.744 124.895 16.24 124.895 18C124.895 19.76 124.279 21.256 123.047 22.488ZM114.815 18C114.815 19.088 115.175 19.992 115.895 20.712C116.615 21.432 117.503 21.792 118.559 21.792C119.615 21.792 120.503 21.432 121.223 20.712C121.943 19.992 122.303 19.088 122.303 18C122.303 16.912 121.943 16.008 121.223 15.288C120.503 14.568 119.615 14.208 118.559 14.208C117.503 14.208 116.615 14.568 115.895 15.288C115.175 16.008 114.815 16.912 114.815 18ZM129.831 12V14.016C130.487 12.528 131.719 11.784 133.527 11.784V14.592C132.551 14.528 131.687 14.768 130.935 15.312C130.199 15.84 129.831 16.72 129.831 17.952V24H127.239V12H129.831Z" fill="#121116"/>
<path d="M8.208 12V14.496H5.232V20.256C5.232 20.752 5.344 21.112 5.568 21.336C5.792 21.544 6.12 21.664 6.552 21.696C7 21.712 7.552 21.704 8.208 21.672V24C6.224 24.24 4.8 24.072 3.936 23.496C3.072 22.904 2.64 21.824 2.64 20.256V14.496H0.432V12H2.64V9.408L5.232 8.64V12H8.208ZM21.6587 19.104H12.1067C12.2987 20 12.7307 20.696 13.4027 21.192C14.0907 21.688 14.9387 21.936 15.9467 21.936C17.3067 21.936 18.3387 21.44 19.0427 20.448L21.1787 21.696C20.0107 23.44 18.2587 24.312 15.9227 24.312C13.9867 24.312 12.4107 23.72 11.1947 22.536C9.99469 21.336 9.39469 19.824 9.39469 18C9.39469 16.224 9.98669 14.728 11.1707 13.512C12.3387 12.296 13.8587 11.688 15.7307 11.688C17.4747 11.688 18.9147 12.304 20.0507 13.536C21.1867 14.768 21.7547 16.264 21.7547 18.024C21.7547 18.344 21.7227 18.704 21.6587 19.104ZM12.0827 16.992H19.1387C18.9627 16.048 18.5627 15.32 17.9387 14.808C17.3307 14.296 16.5867 14.04 15.7067 14.04C14.7467 14.04 13.9467 14.304 13.3067 14.832C12.6667 15.36 12.2587 16.08 12.0827 16.992ZM26.6274 24H24.0354V6.48H26.6274V24ZM32.229 24H29.637V6.48H32.229V24Z" fill="#8D33FF"/>
</svg>
